<?xml version="1.0" standalone="no"?>
<!DOCTYPE svg PUBLIC "-//W3C//DTD SVG 20010904//EN"
 "http://www.w3.org/TR/2001/REC-SVG-20010904/DTD/svg10.dtd">
<svg version="1.0" xmlns="http://www.w3.org/2000/svg"
 width="721.000000pt" height="703.000000pt" viewBox="0 0 721.000000 703.000000"
 preserveAspectRatio="xMidYMid meet">

<g transform="translate(0.000000,703.000000) scale(0.100000,-0.100000)"
fill="#000000" stroke="none">
<path d="M0 3532 c0 -3377 1 -3499 18 -3515 17 -16 282 -17 3605 -17 l3587 0
0 3515 0 3515 -3605 0 -3605 0 0 -3498z m3764 3153 c41 -11 140 -64 325 -174
290 -172 804 -478 1081 -642 193 -114 239 -151 287 -231 65 -108 63 -72 63
-1138 0 -1032 1 -1011 -50 -1113 -45 -90 -115 -141 -645 -477 -280 -178 -608
-386 -729 -462 -263 -167 -279 -176 -369 -194 -81 -17 -174 -8 -249 25 -23 10
-142 81 -263 158 -493 313 -1154 732 -1209 767 -115 75 -175 147 -212 256 -18
52 -19 105 -19 1040 0 908 1 989 17 1041 23 72 85 164 142 208 36 28 1283 774
1484 888 35 19 84 41 110 48 65 18 167 18 236 0z m-2546 -3751 c177 -88 211
-330 65 -465 -62 -57 -104 -73 -193 -72 -111 0 -183 39 -240 130 l-27 41 -39
-22 c-44 -24 -99 -99 -114 -156 -7 -25 -9 -302 -8 -807 l3 -768 24 -48 c30
-62 92 -123 151 -151 l45 -21 2740 -3 c3007 -2 2794 -7 2882 57 47 34 94 98
114 156 12 33 14 175 14 795 0 814 1 790 -53 873 -27 41 -113 99 -119 80 -2
-6 -20 -32 -40 -57 -71 -92 -205 -128 -318 -85 -230 86 -252 404 -36 517 82
42 178 45 256 8 83 -38 165 -151 165 -227 0 -12 16 -25 43 -37 68 -31 125 -79
161 -135 68 -106 66 -77 66 -937 0 -853 1 -833 -61 -932 -37 -58 -113 -130
-167 -157 -106 -54 66 -51 -2882 -51 -2964 0 -2775 -4 -2888 54 -83 42 -138
100 -184 193 l-43 86 -3 776 c-2 533 1 791 8 828 25 121 106 228 207 276 57
26 59 29 67 76 12 77 95 168 181 199 17 6 62 11 101 11 56 1 80 -4 122 -25z
m2221 -953 c73 -23 136 -59 175 -100 l30 -31 -30 -31 c-16 -17 -46 -44 -66
-61 l-37 -29 -28 26 c-71 66 -168 87 -270 60 -120 -33 -194 -134 -193 -264 1
-111 51 -195 143 -241 103 -51 223 -38 311 34 l42 34 63 -57 c76 -68 75 -77
-20 -140 -184 -123 -454 -102 -612 48 -168 159 -183 428 -34 613 42 53 126
108 205 135 88 30 232 32 321 4z m862 3 c30 -9 71 -25 92 -36 46 -23 117 -86
116 -102 -1 -6 -27 -35 -59 -64 l-59 -54 -46 35 c-97 75 -215 86 -317 30 -149
-81 -184 -301 -67 -428 101 -110 289 -117 394 -15 l30 29 65 -59 c77 -69 76
-73 -19 -137 -89 -61 -153 -78 -281 -77 -120 1 -190 21 -276 79 -137 90 -211
266 -184 439 26 172 154 315 321 360 74 20 222 20 290 0z m1692 0 c33 -8 80
-25 103 -37 l42 -22 -30 -77 -31 -77 -55 25 c-113 50 -241 56 -310 14 -56 -34
-53 -103 6 -134 16 -8 85 -29 153 -46 121 -31 205 -65 243 -98 56 -51 77 -174
44 -253 -76 -177 -373 -233 -635 -119 -77 33 -78 37 -41 116 17 38 33 71 34
73 2 2 32 -10 66 -27 80 -39 134 -51 226 -52 114 0 168 33 160 98 -4 35 -49
64 -134 86 -215 55 -285 87 -337 158 -27 37 -35 158 -13 209 33 79 106 139
199 164 72 19 235 19 310 -1z m-4673 -429 l0 -435 -105 0 -105 0 0 435 0 435
105 0 105 0 0 -435z m390 0 l0 -435 -100 0 -100 0 0 435 0 435 100 0 100 0 0
-435z m390 168 c0 -277 6 -329 37 -372 37 -49 70 -65 142 -69 83 -5 137 19
172 75 23 37 24 45 29 333 l5 295 100 0 100 0 3 -250 c1 -141 -2 -280 -8 -319
-29 -187 -152 -298 -349 -313 -166 -12 -306 46 -376 158 -51 79 -57 125 -62
421 -3 153 -3 285 1 293 4 12 25 15 106 15 l100 0 0 -267z m3084 237 c76 -29
147 -95 176 -162 44 -103 24 -244 -46 -327 -68 -79 -153 -108 -346 -117 l-138
-7 0 -113 0 -114 -100 0 -100 0 0 436 0 436 248 -4 c229 -4 251 -6 306 -28z
m-3649 -982 c14 -6 25 -15 25 -19 0 -15 -20 -20 -40 -9 -46 25 -95 -47 -55
-80 9 -8 29 -10 50 -7 36 6 58 -9 34 -24 -8 -5 -30 -9 -50 -9 -86 0 -111 106
-34 148 26 15 38 15 70 0z m214 1 c17 -6 31 -15 31 -19 0 -13 -24 -18 -42 -9
-28 15 -68 -10 -68 -41 0 -37 23 -54 64 -47 39 6 51 0 35 -20 -16 -19 -83 -16
-108 5 -11 9 -24 31 -27 49 -5 27 -1 37 24 63 33 33 44 35 91 19z m182 -15
c26 -23 31 -60 15 -93 -38 -72 -156 -46 -156 34 0 72 86 109 141 59z m1792 -5
c23 -29 22 -84 -3 -109 -47 -47 -140 -11 -140 55 0 75 95 111 143 54z m162 19
c46 -21 20 -41 -31 -24 -27 8 -54 -16 -54 -48 0 -30 18 -46 52 -46 23 0 28 4
28 25 0 16 6 25 15 25 21 0 21 -66 -1 -74 -38 -15 -85 -6 -109 20 -29 31 -32
60 -9 92 27 39 67 50 109 30z m1179 -8 c16 -16 -4 -30 -30 -20 -44 17 -84 -21
-68 -64 8 -20 42 -36 62 -29 6 3 12 16 12 29 0 15 6 24 15 24 21 0 21 -66 -1
-74 -77 -30 -146 34 -118 109 14 36 99 53 128 25z m194 10 c6 0 12 -7 12 -15
0 -10 -10 -14 -36 -12 -49 3 -54 -18 -9 -33 46 -15 63 -45 39 -71 -28 -31
-125 -23 -105 9 6 10 15 10 35 2 15 -5 32 -7 37 -4 17 10 4 27 -32 39 -27 9
-35 17 -37 42 -2 23 2 32 20 41 13 6 32 9 43 7 11 -3 26 -5 33 -5z m155 -2
c75 -40 54 -148 -29 -148 -47 0 -63 9 -80 42 -21 40 -11 74 29 98 37 23 50 24
80 8z m200 -7 c18 -18 -2 -31 -30 -20 -31 11 -73 -11 -73 -39 0 -37 24 -56 63
-49 21 3 39 1 43 -5 9 -15 -16 -28 -55 -28 -87 0 -111 104 -36 148 21 13 73 8
88 -7z m-4463 -66 c0 -68 -2 -75 -20 -75 -18 0 -20 7 -20 75 0 68 2 75 20 75
18 0 20 -7 20 -75z m70 0 c0 -68 -2 -75 -20 -75 -18 0 -20 7 -20 75 0 68 2 75
20 75 18 0 20 -7 20 -75z m70 15 c0 -60 0 -60 29 -60 34 0 41 14 41 76 0 32 4
44 15 44 11 0 15 -13 15 -53 0 -70 -19 -97 -69 -97 -50 0 -64 18 -69 91 -4 55
-3 59 17 59 19 0 21 -6 21 -60z m752 13 l26 -47 28 47 c42 68 54 62 54 -28 0
-60 -3 -75 -15 -75 -11 0 -15 11 -15 43 l0 42 -21 -32 c-26 -40 -41 -42 -60
-5 l-14 27 -3 -38 c-3 -29 -7 -37 -20 -35 -14 3 -18 17 -20 76 -3 64 -1 72 15
72 11 0 28 -18 45 -47z m266 35 c36 -36 -2 -98 -60 -98 -21 0 -28 -5 -28 -20
0 -11 -7 -20 -15 -20 -12 0 -15 15 -15 75 l0 75 53 0 c29 0 58 -5 65 -12z
m152 2 c0 -5 -18 -10 -40 -10 -33 0 -40 -3 -40 -20 0 -16 7 -20 35 -20 24 0
35 -5 35 -15 0 -10 -11 -15 -35 -15 -53 0 -47 -28 7 -32 23 -2 43 -9 46 -15 3
-10 -13 -13 -57 -13 l-61 0 0 75 0 75 55 0 c30 0 55 -4 55 -10z m150 0 c0 -5
-11 -10 -25 -10 -24 0 -25 -2 -25 -65 0 -51 -3 -65 -15 -65 -12 0 -15 14 -15
65 0 63 -1 65 -25 65 -14 0 -25 5 -25 10 0 6 28 10 65 10 37 0 65 -4 65 -10z
m50 -65 c0 -60 -3 -75 -15 -75 -12 0 -15 15 -15 75 0 60 3 75 15 75 12 0 15
-15 15 -75z m160 65 c0 -5 -11 -10 -25 -10 -24 0 -25 -2 -25 -65 0 -58 -2 -65
-20 -65 -18 0 -20 7 -20 65 0 63 -1 65 -25 65 -14 0 -25 5 -25 10 0 6 30 10
70 10 40 0 70 -4 70 -10z m50 -65 c0 -68 -2 -75 -20 -75 -18 0 -20 7 -20 75 0
68 2 75 20 75 18 0 20 -7 20 -75z m74 23 l24 -53 22 53 c15 35 29 52 40 52 16
0 15 -8 -13 -75 -41 -96 -56 -98 -97 -9 -34 76 -36 84 -15 84 9 0 26 -23 39
-52z m236 42 c0 -5 -18 -10 -40 -10 -33 0 -40 -3 -40 -20 0 -16 7 -20 35 -20
24 0 35 -5 35 -15 0 -10 -11 -15 -35 -15 -24 0 -35 -5 -35 -15 0 -11 11 -15
40 -15 29 0 40 -4 40 -15 0 -12 -13 -15 -55 -15 l-55 0 0 75 0 75 55 0 c30 0
55 -4 55 -10z m201 0 c27 -15 25 -64 -3 -84 -12 -9 -35 -16 -50 -16 -21 0 -28
-5 -28 -20 0 -11 -7 -20 -15 -20 -12 0 -15 15 -15 75 l0 75 46 0 c25 0 54 -5
65 -10z m162 -4 c21 -16 22 -45 3 -72 -13 -16 -13 -22 0 -41 13 -21 13 -23 -3
-23 -10 0 -24 9 -31 20 -7 11 -21 20 -32 20 -13 0 -20 -7 -20 -20 0 -11 -7
-20 -15 -20 -12 0 -15 15 -15 75 l0 75 48 0 c26 0 55 -7 65 -14z m515 2 c15
-15 15 -53 0 -78 -10 -15 -10 -22 0 -32 16 -16 15 -28 -3 -28 -8 0 -20 9 -27
20 -7 11 -23 20 -35 20 -16 0 -23 -6 -23 -20 0 -11 -7 -20 -15 -20 -12 0 -15
15 -15 75 l0 75 53 0 c29 0 58 -5 65 -12z m161 -54 c17 -36 31 -70 31 -75 0
-15 -30 -10 -36 6 -4 10 -20 15 -44 15 -24 0 -40 -5 -44 -15 -3 -8 -13 -15
-22 -15 -9 0 -14 6 -11 13 65 161 80 170 126 71z m113 19 l26 -47 28 47 c42
68 54 62 54 -28 0 -60 -3 -75 -15 -75 -11 0 -15 11 -15 43 l0 42 -21 -32 c-26
-40 -41 -42 -60 -5 l-14 27 -3 -37 c-2 -30 -7 -38 -23 -38 -17 0 -19 7 -19 75
0 65 2 75 18 75 10 0 28 -19 44 -47z m207 1 l29 -47 27 47 c40 69 55 62 55
-29 0 -59 -3 -75 -14 -75 -10 0 -16 14 -18 43 l-3 42 -18 -32 c-22 -41 -37
-41 -62 0 l-20 32 -3 -42 c-2 -29 -8 -43 -18 -43 -11 0 -14 16 -14 75 0 91 15
99 59 29z m181 -29 c0 -60 -3 -75 -15 -75 -12 0 -15 15 -15 75 0 60 3 75 15
75 12 0 15 -15 15 -75z m110 27 l35 -47 3 48 c2 33 7 47 18 47 11 0 14 -16 14
-75 0 -91 -10 -95 -69 -27 l-40 47 -1 -47 c0 -36 -4 -48 -15 -48 -12 0 -15 15
-15 75 0 65 2 75 18 75 9 -1 33 -22 52 -48z m850 -27 c0 -60 -3 -75 -15 -75
-12 0 -15 15 -15 75 0 60 3 75 15 75 12 0 15 -15 15 -75z m150 65 c0 -5 -18
-10 -40 -10 -33 0 -40 -3 -40 -20 0 -16 7 -20 35 -20 24 0 35 -5 35 -15 0 -10
-11 -15 -35 -15 -53 0 -47 -28 7 -32 23 -2 43 -9 46 -15 3 -10 -13 -13 -57
-13 l-61 0 0 75 0 75 55 0 c30 0 55 -4 55 -10z m150 0 c0 -5 -11 -10 -25 -10
-24 0 -25 -2 -25 -65 0 -51 -3 -65 -15 -65 -12 0 -15 14 -15 65 0 63 -1 65
-25 65 -14 0 -25 5 -25 10 0 6 28 10 65 10 37 0 65 -4 65 -10z m64 -21 l19
-32 18 24 c10 13 19 27 19 32 0 4 9 7 20 7 18 0 18 -3 -10 -49 -17 -26 -30
-60 -30 -75 0 -19 -5 -26 -19 -26 -14 0 -18 5 -14 20 3 11 -8 42 -26 75 -27
48 -29 55 -13 55 10 0 26 -14 36 -31z"/>
<path d="M3533 6551 c-22 -10 -162 -91 -310 -179 -147 -88 -466 -276 -708
-420 -242 -143 -458 -273 -480 -288 -21 -16 -54 -49 -72 -72 -66 -87 -64 -46
-61 -1113 l3 -964 22 -45 c35 -71 69 -105 157 -161 45 -29 104 -67 131 -84 28
-18 262 -167 520 -330 259 -164 537 -341 618 -392 166 -106 193 -119 264 -129
86 -11 143 13 386 168 352 224 690 438 987 625 177 112 291 191 321 222 84 89
79 24 79 1116 0 1049 2 1002 -57 1087 -31 46 -95 89 -378 256 -121 71 -422
250 -670 397 -574 341 -532 319 -630 323 -62 2 -89 -2 -122 -17z m67 -1200 l0
-579 -62 -40 c-35 -23 -91 -61 -126 -85 l-62 -44 137 -85 c76 -47 143 -88 150
-92 11 -6 293 161 293 174 0 3 -59 43 -130 90 l-130 85 0 578 c0 317 2 577 5
577 2 0 267 -167 587 -371 321 -204 588 -373 594 -376 10 -4 196 106 301 178
23 16 44 29 47 29 3 0 6 -391 6 -870 l0 -869 -72 -46 c-40 -25 -165 -103 -278
-173 -113 -71 -427 -266 -698 -435 -270 -169 -499 -310 -506 -313 -9 -3 -342
198 -795 481 l-781 488 0 868 c0 478 2 869 5 869 3 0 81 -48 175 -106 160
-100 171 -105 193 -92 125 81 954 619 1031 670 56 36 104 67 109 67 4 1 7
-259 7 -578z"/>
<path d="M4655 4749 c-165 -104 -378 -238 -474 -297 -95 -59 -197 -121 -225
-139 -28 -18 -67 -42 -86 -53 -19 -11 -78 -47 -130 -80 -85 -53 -96 -58 -115
-46 -11 7 -141 88 -290 181 -148 92 -428 266 -620 386 -193 120 -358 221 -368
224 -16 7 -17 -26 -17 -561 l0 -569 98 -61 c53 -34 327 -205 607 -380 281
-174 533 -332 561 -350 l50 -32 200 123 c109 68 208 130 219 138 11 7 153 96
315 197 162 101 324 202 360 225 36 23 100 63 143 89 l77 48 0 574 c0 316 -1
574 -2 573 -2 -1 -138 -86 -303 -190z"/>
<path d="M1043 2829 c-77 -23 -127 -114 -103 -191 42 -142 230 -158 291 -24
23 52 23 80 0 132 -31 67 -116 105 -188 83z"/>
<path d="M6165 2833 c-32 -8 -84 -51 -100 -83 -22 -43 -19 -116 7 -158 41 -67
146 -92 209 -49 58 39 81 84 77 145 -5 58 -28 97 -74 124 -33 19 -89 29 -119
21z"/>
<path d="M4830 1669 l0 -151 118 4 c139 4 177 19 212 79 18 33 21 50 16 86
-14 101 -70 133 -236 133 l-110 0 0 -151z"/>
<path d="M1839 941 c-20 -16 -22 -23 -14 -47 18 -52 95 -42 95 12 0 20 -32 54
-51 54 -4 0 -17 -9 -30 -19z"/>
<path d="M3630 940 c-23 -23 -24 -33 -10 -61 12 -22 59 -26 78 -7 19 19 14 55
-10 72 -29 20 -34 20 -58 -4z"/>
<path d="M5353 948 c-25 -12 -31 -56 -11 -76 27 -27 88 -3 88 34 0 15 -35 54
-47 53 -5 0 -18 -5 -30 -11z"/>
<path d="M2227 953 c-4 -3 -7 -17 -7 -30 0 -19 5 -23 29 -23 35 0 50 28 25 47
-20 14 -37 17 -47 6z"/>
<path d="M3307 953 c-4 -3 -7 -17 -7 -30 0 -19 5 -23 29 -23 35 0 50 28 25 47
-20 14 -37 17 -47 6z"/>
<path d="M3460 930 c0 -25 4 -30 24 -30 34 0 51 24 31 44 -9 9 -25 16 -36 16
-14 0 -19 -7 -19 -30z"/>
<path d="M3977 953 c-4 -3 -7 -17 -7 -30 0 -19 5 -23 29 -23 35 0 50 28 25 47
-20 14 -37 17 -47 6z"/>
<path d="M4161 922 c-15 -28 -14 -32 9 -32 21 0 26 16 11 39 -7 11 -11 10 -20
-7z"/>
</g>
</svg>
